<svg width="117" height="114" viewBox="0 0 117 114" fill="none" xmlns="http://www.w3.org/2000/svg">
<path d="M70.2005 40.3366H46.8005C45.249 40.3366 43.761 40.9306 42.6639 41.988C41.5668 43.0454 40.9505 44.4795 40.9505 45.9749V68.5278C40.9505 70.0231 41.5668 71.4572 42.6639 72.5146C43.761 73.572 45.249 74.166 46.8005 74.166H70.2005C71.752 74.166 73.24 73.572 74.3371 72.5146C75.4342 71.4572 76.0505 70.0231 76.0505 68.5278V45.9749C76.0505 44.4795 75.4342 43.0454 74.3371 41.988C73.24 40.9306 71.752 40.3366 70.2005 40.3366ZM64.3505 62.8895H52.6505V51.6131H64.3505V62.8895ZM111.15 62.8895C112.702 62.8895 114.19 62.2955 115.287 61.2381C116.384 60.1808 117 58.7467 117 57.2513C117 55.756 116.384 54.3219 115.287 53.2645C114.19 52.2071 112.702 51.6131 111.15 51.6131H99.4505V40.3366H111.15C112.702 40.3366 114.19 39.7426 115.287 38.6852C116.384 37.6278 117 36.1937 117 34.6984C117 33.203 116.384 31.7689 115.287 30.7116C114.19 29.6542 112.702 29.0602 111.15 29.0602H98.3975C97.524 26.6955 96.1154 24.5479 94.2738 22.773C92.4323 20.9981 90.204 19.6405 87.7505 18.7986V6.50725C87.7505 5.0119 87.1342 3.57779 86.0371 2.52042C84.94 1.46304 83.452 0.869019 81.9005 0.869019C80.349 0.869019 78.861 1.46304 77.7639 2.52042C76.6668 3.57779 76.0505 5.0119 76.0505 6.50725V17.7837H64.3505V6.50725C64.3505 5.0119 63.7341 3.57779 62.6371 2.52042C61.54 1.46304 60.052 0.869019 58.5005 0.869019C56.949 0.869019 55.461 1.46304 54.3639 2.52042C53.2668 3.57779 52.6505 5.0119 52.6505 6.50725V17.7837H40.9505V6.50725C40.9505 5.0119 40.3341 3.57779 39.2371 2.52042C38.14 1.46304 36.652 0.869019 35.1005 0.869019C33.549 0.869019 32.061 1.46304 30.9639 2.52042C29.8668 3.57779 29.2505 5.0119 29.2505 6.50725V18.7986C26.797 19.6405 24.5687 20.9981 22.7272 22.773C20.8856 24.5479 19.477 26.6955 18.6035 29.0602H5.85049C4.29897 29.0602 2.811 29.6542 1.71391 30.7116C0.616826 31.7689 0.000488281 33.203 0.000488281 34.6984C0.000488281 36.1937 0.616826 37.6278 1.71391 38.6852C2.811 39.7426 4.29897 40.3366 5.85049 40.3366H17.5505V51.6131H5.85049C4.29897 51.6131 2.811 52.2071 1.71391 53.2645C0.616826 54.3219 0.000488281 55.756 0.000488281 57.2513C0.000488281 58.7467 0.616826 60.1808 1.71391 61.2381C2.811 62.2955 4.29897 62.8895 5.85049 62.8895H17.5505V74.166H5.85049C4.29897 74.166 2.811 74.76 1.71391 75.8174C0.616826 76.8748 0.000488281 78.3089 0.000488281 79.8042C0.000488281 81.2996 0.616826 82.7337 1.71391 83.7911C2.811 84.8484 4.29897 85.4425 5.85049 85.4425H18.6035C19.477 87.8071 20.8856 89.9548 22.7272 91.7297C24.5687 93.5045 26.797 94.8621 29.2505 95.704V107.995C29.2505 109.491 29.8668 110.925 30.9639 111.982C32.061 113.04 33.549 113.634 35.1005 113.634C36.652 113.634 38.14 113.04 39.2371 111.982C40.3341 110.925 40.9505 109.491 40.9505 107.995V96.7189H52.6505V107.995C52.6505 109.491 53.2668 110.925 54.3639 111.982C55.461 113.04 56.949 113.634 58.5005 113.634C60.052 113.634 61.54 113.04 62.6371 111.982C63.7341 110.925 64.3505 109.491 64.3505 107.995V96.7189H76.0505V107.995C76.0505 109.491 76.6668 110.925 77.7639 111.982C78.861 113.04 80.349 113.634 81.9005 113.634C83.452 113.634 84.94 113.04 86.0371 111.982C87.1342 110.925 87.7505 109.491 87.7505 107.995V95.704C90.204 94.8621 92.4323 93.5045 94.2738 91.7297C96.1154 89.9548 97.524 87.8071 98.3975 85.4425H111.15C112.702 85.4425 114.19 84.8484 115.287 83.7911C116.384 82.7337 117 81.2996 117 79.8042C117 78.3089 116.384 76.8748 115.287 75.8174C114.19 74.76 112.702 74.166 111.15 74.166H99.4505V62.8895H111.15ZM87.7505 79.8042C87.7505 81.2996 87.1342 82.7337 86.0371 83.7911C84.94 84.8484 83.452 85.4425 81.9005 85.4425H35.1005C33.549 85.4425 32.061 84.8484 30.9639 83.7911C29.8668 82.7337 29.2505 81.2996 29.2505 79.8042V34.6984C29.2505 33.203 29.8668 31.7689 30.9639 30.7116C32.061 29.6542 33.549 29.0602 35.1005 29.0602H81.9005C83.452 29.0602 84.94 29.6542 86.0371 30.7116C87.1342 31.7689 87.7505 33.203 87.7505 34.6984V79.8042Z" fill="#6857DD"/>
</svg>