<svg width="18" height="17" viewBox="0 0 18 17" fill="none" xmlns="http://www.w3.org/2000/svg">
<path d="M8.40728 1.05426C8.70601 0.134865 10.0067 0.134862 10.3054 1.05425L11.5968 5.02874C11.7304 5.4399 12.1136 5.71828 12.5459 5.71828H16.7249C17.6916 5.71828 18.0936 6.95531 17.3115 7.52353L13.9306 9.97989C13.5808 10.234 13.4345 10.6844 13.5681 11.0956L14.8594 15.0701C15.1582 15.9895 14.1059 16.754 13.3238 16.1858L9.94292 13.7294C9.59316 13.4753 9.11955 13.4753 8.7698 13.7294L5.3889 16.1858C4.60682 16.754 3.55454 15.9895 3.85326 15.0701L5.14465 11.0956C5.27825 10.6844 5.13189 10.234 4.78214 9.97989L1.40124 7.52353C0.619162 6.95531 1.0211 5.71828 1.9878 5.71828H6.16682C6.59914 5.71828 6.9823 5.4399 7.11589 5.02874L8.40728 1.05426Z" fill="#FFD705"/>
</svg>