<svg width="18" height="13" viewBox="0 0 18 13" fill="none" xmlns="http://www.w3.org/2000/svg">
<path d="M0.57388 1.69201L8.07388 5.71262C8.32588 5.84734 8.65188 5.9112 8.97988 5.9112C9.30788 5.9112 9.63388 5.84734 9.88588 5.71262L17.3859 1.69201C17.8749 1.42956 18.3369 0.408691 17.4399 0.408691H0.52088C-0.37612 0.408691 0.0858795 1.42956 0.57388 1.69201ZM17.6129 3.89042L9.88588 7.90903C9.54588 8.08666 9.30788 8.10762 8.97988 8.10762C8.65188 8.10762 8.41388 8.08666 8.07388 7.90903C7.73388 7.7314 0.94088 4.17782 0.38588 3.88942C-0.00412041 3.68585 -0.000120454 3.92435 -0.000120454 4.10797V11.3858C-0.000120454 11.8049 0.56588 12.3837 0.99988 12.3837H16.9999C17.4339 12.3837 17.9999 11.8049 17.9999 11.3858V4.10897C17.9999 3.92535 18.0039 3.68685 17.6129 3.89042Z" fill="#6857DD"/>
</svg>