<svg width="18" height="19" viewBox="0 0 18 19" fill="none" xmlns="http://www.w3.org/2000/svg">
<path d="M17.4872 14.2572L13.4222 10.5689C13.23 10.3946 12.9775 10.3016 12.718 10.3096C12.4584 10.3176 12.2122 10.426 12.0312 10.6118L9.63816 13.0676C9.06216 12.9579 7.90416 12.5976 6.71216 11.4111C5.52016 10.2206 5.15916 9.06201 5.05216 8.4912L7.51116 6.10219C7.69757 5.92169 7.8063 5.6759 7.81432 5.41683C7.82235 5.15775 7.72904 4.90573 7.55416 4.71409L3.85916 0.658552C3.6842 0.46631 3.44104 0.349701 3.18131 0.333491C2.92159 0.31728 2.66576 0.402745 2.46816 0.571734L0.29816 2.42886C0.125271 2.60201 0.0220794 2.83246 0.00815989 3.0765C-0.00684011 3.32598 -0.29284 9.23565 4.29916 13.8201C8.30516 17.8167 13.3232 18.1091 14.7052 18.1091C14.9072 18.1091 15.0312 18.1031 15.0642 18.1011C15.3087 18.0875 15.5395 17.984 15.7122 17.8107L17.5722 15.6443C17.7422 15.4477 17.8284 15.1926 17.8126 14.9335C17.7967 14.6743 17.6799 14.4316 17.4872 14.2572Z" fill="#6857DD"/>
</svg>